<?xml version="1.0" encoding="UTF-8"?>
<svg version="1.1" xmlns="http://www.w3.org/2000/svg" width="200" height="200">
<path d="M0 0 C66 0 132 0 200 0 C200 66 200 132 200 200 C134 200 68 200 0 200 C0 134 0 68 0 0 Z " fill="#684BFE" transform="translate(0,0)"/>
<path d="M0 0 C0.88348618 -0.00350464 1.76697235 -0.00700928 2.67723083 -0.01062012 C5.59007684 -0.01940465 8.50267898 -0.01360084 11.41552734 -0.00683594 C13.44143724 -0.00818329 15.46734682 -0.01012441 17.49325562 -0.01263428 C21.73495569 -0.01558089 25.97657145 -0.01130182 30.21826172 -0.00195312 C35.66035972 0.00945567 41.10226076 0.00286995 46.54435158 -0.00909805 C50.72557059 -0.01631669 54.9067427 -0.01402895 59.0879631 -0.00884247 C61.09506631 -0.00750674 63.10217374 -0.00915102 65.109272 -0.01380157 C67.91020282 -0.01886841 70.71081195 -0.01115497 73.51171875 0 C74.3439949 -0.00404846 75.17627106 -0.00809692 76.0337677 -0.01226807 C79.91838774 0.01646035 81.8191992 0.0539453 85.12646484 2.25878906 C85.4313633 5.25994646 85.54416141 8.01054101 85.50146484 11.00878906 C85.51306641 11.80800781 85.52466797 12.60722656 85.53662109 13.43066406 C85.51189157 18.44251368 84.891171 21.92367702 82.12646484 26.25878906 C78.18837138 29.81267828 75.80023362 31.3758056 70.54418945 31.41650391 C69.59237289 31.42676605 68.64055634 31.4370282 67.65989685 31.44760132 C66.62663773 31.45490265 65.5933786 31.46220398 64.52880859 31.46972656 C62.34325446 31.49781296 60.15770769 31.52647752 57.97216797 31.55566406 C54.52498723 31.59679812 51.07794141 31.63368173 47.63061523 31.66015625 C44.30472246 31.68791789 40.97945654 31.73380991 37.65380859 31.78222656 C36.63471909 31.78547943 35.61562958 31.7887323 34.56565857 31.79208374 C27.10719938 31.9189578 20.76446229 33.0759906 14.31396484 36.94628906 C8.88324758 42.68733303 7.76432629 47.59363808 7.68896484 55.32128906 C7.67889404 55.99385742 7.66882324 56.66642578 7.65844727 57.359375 C7.75727703 63.09290345 8.9948635 67.76855337 12.77490234 72.18457031 C13.34466797 72.6421875 13.91443359 73.09980469 14.50146484 73.57128906 C15.06607422 74.04179688 15.63068359 74.51230469 16.21240234 74.99707031 C20.11155543 77.56732837 23.60617205 78.50766047 28.2487793 78.49829102 C29.24363846 78.50202225 30.23849762 78.50575348 31.26350403 78.50959778 C32.32816391 78.50546371 33.39282379 78.50132965 34.48974609 78.49707031 C36.76123644 78.51249041 39.03272093 78.52879407 41.30419922 78.54589844 C44.87228348 78.56234122 48.43993765 78.57128713 52.00805664 78.56420898 C55.46077715 78.56158262 58.91219937 78.58975634 62.36474609 78.62207031 C63.42333328 78.61186356 64.48192047 78.6016568 65.57258606 78.59114075 C72.35857932 78.68024793 76.8774089 79.84349664 82.12646484 84.25878906 C86.01815282 88.59568001 85.54319407 93.41380184 85.43896484 98.94628906 C85.4421875 99.81318359 85.44541016 100.68007812 85.44873047 101.57324219 C85.39378848 107.99146543 85.39378848 107.99146543 83.12646484 110.25878906 C80.24684004 110.46808821 77.46262808 110.55242378 74.58105469 110.54931641 C73.25389938 110.55939224 73.25389938 110.55939224 71.89993286 110.56967163 C68.96236615 110.58873395 66.02502714 110.5925807 63.08740234 110.59472656 C61.04676214 110.60115142 59.00612287 110.60787955 56.96548462 110.61489868 C52.67976752 110.6268939 48.39413114 110.63057747 44.10839844 110.62939453 C38.62732509 110.62919182 33.14677304 110.65643434 27.66582298 110.69093895 C23.4466415 110.71322984 19.22758471 110.71723131 15.00835037 110.71617508 C12.98861529 110.71853003 10.96887672 110.72734756 8.94919968 110.74283981 C6.11518254 110.76253307 3.28227896 110.7566474 0.44824219 110.74462891 C-0.38012146 110.75586792 -1.20848511 110.76710693 -2.06195068 110.77868652 C-8.66878412 110.70783006 -13.82421449 108.83717217 -18.89697266 104.54785156 C-19.34298828 103.99871094 -19.78900391 103.44957031 -20.24853516 102.88378906 C-20.71001953 102.33980469 -21.17150391 101.79582031 -21.64697266 101.23535156 C-24.70524079 96.3070596 -25.17155587 91.30658885 -25.1640625 85.63623047 C-25.17077972 84.89717972 -25.17749695 84.15812897 -25.18441772 83.39668274 C-25.20332379 80.96783618 -25.20731804 78.539267 -25.20947266 76.11035156 C-25.21590537 74.41173186 -25.22263409 72.71311326 -25.22964478 71.01449585 C-25.24159879 67.45885653 -25.2453275 63.90331424 -25.24414062 60.34765625 C-25.24393746 55.80605514 -25.27124497 51.26507996 -25.30568504 46.72362709 C-25.3279923 43.21645282 -25.33197701 39.70942833 -25.33092117 36.2021904 C-25.33327116 34.52854632 -25.3420606 32.85489773 -25.35758591 31.18132401 C-25.50520619 13.62613939 -25.50520619 13.62613939 -19.12744141 6.23535156 C-18.56927734 5.78933594 -18.01111328 5.34332031 -17.43603516 4.88378906 C-16.88044922 4.42230469 -16.32486328 3.96082031 -15.75244141 3.48535156 C-10.58024224 0.10890554 -5.98856348 -0.02927271 0 0 Z " fill="#FEFDFD" transform="translate(69.87353515625,44.7412109375)"/>
<path d="M0 0 C1.04031876 -0.00287018 2.08063751 -0.00574036 3.15248108 -0.00869751 C5.34702093 -0.010734 7.54157911 -0.00523329 9.73608398 0.00732422 C13.0829356 0.02336694 16.42857665 0.00746916 19.77539062 -0.01171875 C21.91276307 -0.00973593 24.05013476 -0.00589145 26.1875 0 C27.18249008 -0.00607269 28.17748016 -0.01214539 29.20262146 -0.0184021 C36.18192175 0.05172811 41.45741093 0.69569218 46.59765625 5.8359375 C48.88220544 11.04470966 48.92083612 15.79706755 48.16015625 21.3984375 C45.98972606 25.98045679 43.76060244 28.34752209 39.16015625 30.3984375 C35.27749869 30.85836339 31.41407665 30.84252475 27.5078125 30.83203125 C26.37492294 30.8372731 25.24203339 30.84251495 24.07481384 30.84791565 C21.68180154 30.85433178 19.28875768 30.85300418 16.89575195 30.84448242 C13.23917329 30.83597592 9.58415864 30.86473646 5.92773438 30.89648438 C3.60026088 30.89809661 1.27278463 30.89751844 -1.0546875 30.89453125 C-2.14547104 30.90576523 -3.23625458 30.91699921 -4.36009216 30.92857361 C-10.47576572 30.87257406 -14.22306454 30.562516 -18.83984375 26.3984375 C-21.80773074 21.17461328 -21.4717545 15.22781419 -20.83984375 9.3984375 C-16.62851929 0.16591849 -9.04698376 -0.05510408 0 0 Z " fill="#FCFBFD" transform="translate(106.83984375,84.6015625)"/>
<path d="M0 0 C0.495 1.98 0.495 1.98 1 4 C-2.19668988 6.6486859 -5.39486597 8.93992341 -9 11 C-8.505 11.99 -8.505 11.99 -8 13 C-8.33 13.66 -8.66 14.32 -9 15 C-7.68 15.33 -6.36 15.66 -5 16 C-8.00566775 16.87561352 -10.63973364 17.10857193 -13.76513672 17.06591797 C-14.70646454 17.05615936 -15.64779236 17.04640076 -16.61764526 17.03634644 C-17.6281192 17.02177399 -18.63859314 17.00720154 -19.6796875 16.9921875 C-21.82681818 16.97466995 -23.9739539 16.95776179 -26.12109375 16.94140625 C-29.50063026 16.91045541 -32.87991456 16.87493264 -36.25927734 16.82861328 C-39.52444588 16.7862085 -42.78931844 16.76281445 -46.0546875 16.7421875 C-47.06111298 16.72356659 -48.06753845 16.70494568 -49.10446167 16.6857605 C-54.4961936 16.66610669 -58.36932302 16.89846926 -63 20 C-67.13031113 25.16724578 -66.63232947 30.68525029 -66 37 C-64.53078937 41.29553319 -64.53078937 41.29553319 -61.21238708 44.13127136 C-58.61851175 45.14979737 -56.63647463 45.26039959 -53.85180664 45.2746582 C-52.82716812 45.28419022 -51.8025296 45.29372223 -50.74684143 45.30354309 C-49.64573532 45.30263168 -48.54462921 45.30172028 -47.41015625 45.30078125 C-45.70514198 45.30720894 -45.70514198 45.30720894 -43.96568298 45.31376648 C-41.5624966 45.31950791 -39.15929284 45.32001143 -36.75610352 45.31567383 C-33.07993919 45.31251499 -29.40458039 45.33597256 -25.72851562 45.36132812 C-23.39323018 45.36360124 -21.05794257 45.36430456 -18.72265625 45.36328125 C-17.62357437 45.372491 -16.52449249 45.38170074 -15.3921051 45.39118958 C-13.85041908 45.38184639 -13.85041908 45.38184639 -12.27758789 45.37231445 C-10.92667809 45.37325859 -10.92667809 45.37325859 -9.54847717 45.3742218 C-5.38449339 44.76277685 -2.7554016 42.98185678 -0.21484375 39.6796875 C1.94317614 34.9195536 1.6409056 30.11375207 1 25 C-0.05960224 22.25696044 -1.25417961 20.40050303 -3 18 C0.87176607 19.46860092 2.18057975 21.33032186 4 25 C4.72391578 30.78354218 4.99350676 37.88609261 2 43 C-4.06443363 48.41697338 -10.10122404 48.73571793 -17.9375 48.70703125 C-19.05817871 48.72215256 -20.17885742 48.73727386 -21.33349609 48.75285339 C-24.88920403 48.79560935 -28.44406099 48.80455726 -32 48.8125 C-34.42059535 48.83565352 -36.8411706 48.86102062 -39.26171875 48.88867188 C-45.17448735 48.95140483 -51.08692505 48.98643482 -57 49 C-57 49.66 -57 50.32 -57 51 C-59.31 50.34 -61.62 49.68 -64 49 C-63.01 48.505 -63.01 48.505 -62 48 C-62 47.01 -62 46.02 -62 45 C-62.928125 44.566875 -62.928125 44.566875 -63.875 44.125 C-66 43 -66 43 -68 41 C-68.33 42.98 -68.66 44.96 -69 47 C-68.360625 47.28875 -67.72125 47.5775 -67.0625 47.875 C-65 49 -65 49 -64 51 C-58.43964261 53.59406518 -52.70499252 53.34736775 -46.6953125 53.4140625 C-45.61619598 53.43342865 -44.53707947 53.4527948 -43.42526245 53.4727478 C-39.99192105 53.53233942 -36.55854576 53.57884761 -33.125 53.625 C-30.79165236 53.66319853 -28.45831854 53.70225135 -26.125 53.7421875 C-20.41678968 53.83802417 -14.70849556 53.92313112 -9 54 C-9 54.33 -9 54.66 -9 55 C-16.1165744 55.10176424 -23.2329598 55.17161829 -30.35009766 55.21972656 C-32.7691143 55.23979065 -35.18808276 55.26704843 -37.60693359 55.30175781 C-41.09224368 55.35050341 -44.57691016 55.37302164 -48.0625 55.390625 C-49.13677246 55.41127014 -50.21104492 55.43191528 -51.31787109 55.45318604 C-59.03111588 55.45546968 -64.32459987 54.22779565 -70.27734375 49 C-70.82519531 48.34 -71.37304688 47.68 -71.9375 47 C-72.50339844 46.34 -73.06929688 45.68 -73.65234375 45 C-77.62883185 39.09866114 -76.7981349 29.86220596 -76 23 C-74.24741655 17.2156887 -70.97226508 13.36271418 -66.0390625 9.97265625 C-59.37131334 6.79206326 -53.07199639 6.71944092 -45.80859375 6.7265625 C-43.62564582 6.70628331 -41.44270314 6.68543273 -39.25976562 6.6640625 C-35.84085632 6.64143212 -32.42215472 6.62497382 -29.00317383 6.61914062 C-25.68793878 6.60961751 -22.37362265 6.57585618 -19.05859375 6.5390625 C-17.53026161 6.54663071 -17.53026161 6.54663071 -15.97105408 6.55435181 C-8.67581583 6.45334807 -5.20735506 5.20735506 0 0 Z " fill="#684BF9" transform="translate(153,69)"/>
<path d="M0 0 C29.205 0.495 29.205 0.495 59 1 C59.495 1.99 59.495 1.99 60 3 C59.36186371 2.99333817 58.72372742 2.98667633 58.06625366 2.97981262 C51.41515143 2.91336151 44.76414376 2.86815866 38.11279297 2.83520508 C35.6316342 2.82013338 33.15050201 2.79967254 30.66943359 2.77368164 C27.09986811 2.73722833 23.53065539 2.72025708 19.9609375 2.70703125 C18.85446869 2.69154739 17.74799988 2.67606354 16.60800171 2.66011047 C11.01014415 2.65889156 6.7791682 2.71764757 2 6 C-2.13031113 11.16724578 -1.63232947 16.68525029 -1 23 C0.46921063 27.29553319 0.46921063 27.29553319 3.78761292 30.13127136 C6.38148825 31.14979737 8.36352537 31.26039959 11.14819336 31.2746582 C12.17283188 31.28419022 13.1974704 31.29372223 14.25315857 31.30354309 C15.35426468 31.30263168 16.45537079 31.30172028 17.58984375 31.30078125 C19.29485802 31.30720894 19.29485802 31.30720894 21.03431702 31.31376648 C23.4375034 31.31950791 25.84070716 31.32001143 28.24389648 31.31567383 C31.92006081 31.31251499 35.59541961 31.33597256 39.27148438 31.36132812 C41.60676982 31.36360124 43.94205743 31.36430456 46.27734375 31.36328125 C47.37642563 31.372491 48.47550751 31.38170074 49.6078949 31.39118958 C51.14958092 31.38184639 51.14958092 31.38184639 52.72241211 31.37231445 C54.07332191 31.37325859 54.07332191 31.37325859 55.45152283 31.3742218 C59.61550661 30.76277685 62.2445984 28.98185678 64.78515625 25.6796875 C66.94317614 20.9195536 66.6409056 16.11375207 66 11 C64.94039776 8.25696044 63.74582039 6.40050303 62 4 C65.87176607 5.46860092 67.18057975 7.33032186 69 11 C69.72391578 16.78354218 69.99350676 23.88609261 67 29 C60.93556637 34.41697338 54.89877596 34.73571793 47.0625 34.70703125 C45.94182129 34.72215256 44.82114258 34.73727386 43.66650391 34.75285339 C40.11079597 34.79560935 36.55593901 34.80455726 33 34.8125 C30.57940465 34.83565352 28.1588294 34.86102062 25.73828125 34.88867188 C19.82551265 34.95140483 13.91307495 34.98643482 8 35 C8 35.66 8 36.32 8 37 C5.69 36.34 3.38 35.68 1 35 C1.99 34.505 1.99 34.505 3 34 C3 33.01 3 32.02 3 31 C2.401875 30.773125 1.80375 30.54625 1.1875 30.3125 C-1.7178383 28.56929702 -2.5484308 27.06808945 -4 24 C-4.20952713 21.30408429 -4.28744431 18.86549491 -4.1875 16.1875 C-4.16719727 15.14819336 -4.16719727 15.14819336 -4.14648438 14.08789062 C-4.11138845 12.39158735 -4.05758943 10.69568864 -4 9 C-3.01 8.67 -2.02 8.34 -1 8 C-1 6.35 -1 4.7 -1 3 C-0.34 3 0.32 3 1 3 C0.67 2.01 0.34 1.02 0 0 Z M-9 5 C-8.67 5.99 -8.34 6.98 -8 8 C-8.33 8.66 -8.66 9.32 -9 10 C-9.07033769 11.87379605 -9.0843022 13.75001102 -9.0625 15.625 C-9.05347656 16.62789062 -9.04445313 17.63078125 -9.03515625 18.6640625 C-9.02355469 19.43492188 -9.01195313 20.20578125 -9 21 C-8.34 21 -7.68 21 -7 21 C-7 21.66 -7 22.32 -7 23 C-6.34 23 -5.68 23 -5 23 C-4.855625 23.886875 -4.71125 24.77375 -4.5625 25.6875 C-4.08980022 28.47117646 -3.56929815 31.23483757 -3 34 C-2.01 34.33 -1.02 34.66 0 35 C0.33 35.66 0.66 36.32 1 37 C6.56035739 39.59406518 12.29500748 39.34736775 18.3046875 39.4140625 C19.38380402 39.43342865 20.46292053 39.4527948 21.57473755 39.4727478 C25.00807895 39.53233942 28.44145424 39.57884761 31.875 39.625 C34.20834764 39.66319853 36.54168146 39.70225135 38.875 39.7421875 C44.58321032 39.83802417 50.29150444 39.92313112 56 40 C56 40.33 56 40.66 56 41 C48.8834256 41.10176424 41.7670402 41.17161829 34.64990234 41.21972656 C32.2308857 41.23979065 29.81191724 41.26704843 27.39306641 41.30175781 C23.90775632 41.35050341 20.42308984 41.37302164 16.9375 41.390625 C15.86322754 41.41127014 14.78895508 41.43191528 13.68212891 41.45318604 C5.96888412 41.45546968 0.67540013 40.22779565 -5.27734375 35 C-5.82519531 34.34 -6.37304688 33.68 -6.9375 33 C-7.78634766 32.01 -7.78634766 32.01 -8.65234375 31 C-11.55994104 26.68495707 -11.18292193 22.05419107 -11.1875 17 C-11.19974609 16.2884375 -11.21199219 15.576875 -11.22460938 14.84375 C-11.2351828 11.065513 -11.11035168 8.20306342 -9 5 Z " fill="#6C54E6" transform="translate(88,83)"/>
<path d="M0 0 C0.8737326 -0.0049649 1.74746521 -0.00992981 2.64767456 -0.01504517 C5.52798253 -0.02961069 8.40823553 -0.03645711 11.28857422 -0.04199219 C13.29206341 -0.0477454 15.29555258 -0.05350312 17.29904175 -0.05926514 C21.4936346 -0.06975713 25.68820838 -0.07561253 29.8828125 -0.07910156 C35.26441827 -0.08460235 40.64577308 -0.10867162 46.02729988 -0.13707352 C50.1621882 -0.15566371 54.29701539 -0.16090342 58.43194199 -0.16243744 C60.41673031 -0.16546941 62.40151743 -0.17351616 64.3862648 -0.18662262 C67.15614477 -0.20361796 69.92540201 -0.20181968 72.6953125 -0.1953125 C73.51823792 -0.20452728 74.34116333 -0.21374207 75.18902588 -0.22323608 C80.79558638 -0.18183467 80.79558638 -0.18183467 82.92997551 1.55005264 C84.65121274 3.70256436 84.57793869 5.02600766 84.54638672 7.75878906 C84.54123047 8.64244141 84.53607422 9.52609375 84.53076172 10.43652344 C84.51013672 11.35626953 84.48951172 12.27601562 84.46826172 13.22363281 C84.46310547 14.14724609 84.45794922 15.07085937 84.45263672 16.02246094 C84.37281716 22.85202193 84.37281716 22.85202193 83.21826172 25.16113281 C82.55826172 25.16113281 81.89826172 25.16113281 81.21826172 25.16113281 C81.21826172 18.23113281 81.21826172 11.30113281 81.21826172 4.16113281 C77.95879697 2.53140044 74.36336092 2.99574377 70.78051758 2.98413086 C69.90710724 2.97755966 69.0336969 2.97098846 68.13381958 2.96421814 C65.2335807 2.94445566 62.3333938 2.93281313 59.43310547 2.92285156 C58.4422098 2.91877604 57.45131413 2.91470051 56.43039131 2.91050148 C51.181054 2.88962355 45.93174293 2.87533192 40.68237305 2.8659668 C35.27092868 2.85492675 29.85989828 2.82055952 24.44859982 2.7807951 C20.28000652 2.75458501 16.11151092 2.74627082 11.94284248 2.74268532 C9.9490436 2.73782708 7.95524885 2.72623492 5.96153069 2.70764732 C3.16128203 2.68317305 0.36209152 2.68423653 -2.43823242 2.69116211 C-3.66135887 2.67194702 -3.66135887 2.67194702 -4.90919495 2.65234375 C-10.94512838 2.70641245 -15.45640188 4.37397625 -20.78173828 7.16113281 C-20.78173828 6.17113281 -20.78173828 5.18113281 -20.78173828 4.16113281 C-13.65707556 0.94804962 -7.78586426 0.01062858 0 0 Z " fill="#6A53DC" transform="translate(72.78173828125,42.8388671875)"/>
<path d="M0 0 C0.495 1.485 0.495 1.485 1 3 C0 4 0 4 -1.84765625 4.09765625 C-3.8984375 4.06510417 -5.94921875 4.03255208 -8 4 C-8.33 4.99 -8.66 5.98 -9 7 C-9.495 5.515 -9.495 5.515 -10 4 C-37.06 4 -64.12 4 -92 4 C-92 3.34 -92 2.68 -92 2 C-90.86216568 1.98969254 -89.72433136 1.97938507 -88.55201721 1.96876526 C-77.85363589 1.87120863 -67.15531505 1.76849186 -56.4570322 1.66066074 C-50.95632032 1.60538501 -45.45560318 1.55195771 -39.95483398 1.50268555 C-34.65098717 1.45511042 -29.34720724 1.40277037 -24.04343987 1.34705925 C-22.01516309 1.32660454 -19.98686795 1.30789674 -17.95855904 1.29092598 C-15.12798516 1.26695068 -12.29753895 1.23688713 -9.46704102 1.20532227 C-8.61971909 1.1995668 -7.77239716 1.19381134 -6.8993988 1.18788147 C-3.14330256 1.49942903 -3.14330256 1.49942903 0 0 Z " fill="#6952DC" transform="translate(154,153)"/>
<path d="M0 0 C0.495 1.98 0.495 1.98 1 4 C-4.84372494 8.98435363 -9.18127928 11.46912324 -17 11 C-17 10.67 -17 10.34 -17 10 C-31.19 9.67 -45.38 9.34 -60 9 C-56.78763431 6.85842287 -55.95026996 6.75012692 -52.2565918 6.74462891 C-51.29516769 6.73766998 -50.33374359 6.73071106 -49.34318542 6.72354126 C-48.30567642 6.72453827 -47.26816742 6.72553528 -46.19921875 6.7265625 C-44.00325014 6.70627035 -41.80728664 6.68541951 -39.61132812 6.6640625 C-36.14847512 6.6414728 -32.68582366 6.62499716 -29.22290039 6.61914062 C-25.88130206 6.60961022 -22.54061309 6.57582062 -19.19921875 6.5390625 C-17.65206429 6.54663071 -17.65206429 6.54663071 -16.07365417 6.55435181 C-8.72677938 6.45398581 -5.24311014 5.24311014 0 0 Z " fill="#836CF5" transform="translate(153,69)"/>
<path d="M0 0 C0.99 0.33 1.98 0.66 3 1 C2.34878174 1.96083496 1.69756348 2.92166992 1.02661133 3.91162109 C-2.40698016 10.83785545 -1.5096493 18.87155025 -1.42578125 26.4140625 C-1.42085055 28.11460995 -1.4175561 29.81516285 -1.41581726 31.51571655 C-1.40820289 35.0679477 -1.38772008 38.61977222 -1.35668945 42.171875 C-1.31705622 46.71563642 -1.29906654 51.25913447 -1.28938007 55.80304909 C-1.27938918 60.15258884 -1.25953554 64.50206531 -1.23828125 68.8515625 C-1.2348855 69.67606525 -1.23148975 70.50056801 -1.2279911 71.35005569 C-1.21635824 73.69259322 -1.19782981 76.03496967 -1.17700195 78.37744141 C-1.17431305 79.06330826 -1.17162415 79.74917511 -1.16885376 80.45582581 C-1.12508019 84.39911294 -0.74997782 88.12908182 0 92 C-2.65914163 90.67042918 -2.98072565 89.79542097 -4 87 C-4.15702212 84.35704817 -4.20485814 81.82857301 -4.15112305 79.18969727 C-4.14326782 78.40710541 -4.1354126 77.62451355 -4.12731934 76.81820679 C-4.09876861 74.23404165 -4.05549642 71.65035479 -4.01171875 69.06640625 C-3.98807568 67.26807115 -3.9652035 65.46972577 -3.94306946 63.67137146 C-3.89455128 59.90278323 -3.83919677 56.13437925 -3.77856445 52.3659668 C-3.70110085 47.5396384 -3.63668595 42.71325039 -3.57690716 37.88667393 C-3.53012989 34.17284964 -3.47838149 30.4591085 -3.42493629 26.74537468 C-3.3995524 24.96601801 -3.37525098 23.18664555 -3.3520565 21.40725899 C-3.3184704 18.91797186 -3.27867286 16.42886154 -3.23706055 13.93969727 C-3.22816299 13.206548 -3.21926544 12.47339874 -3.21009827 11.71803284 C-3.14197004 8.05003944 -3.04336619 4.53315742 -2 1 C-1.34 0.67 -0.68 0.34 0 0 Z " fill="#6C58D3" transform="translate(47,52)"/>
<path d="M0 0 C3.87176607 1.46860092 5.18057975 3.33032186 7 7 C7.72595867 12.79986336 7.96433337 19.84463762 5 25 C-1.16085289 29.63084853 -6.53264316 29.53170668 -14.05859375 29.390625 C-15.20288345 29.38496521 -16.34717316 29.37930542 -17.52613831 29.37347412 C-21.16369301 29.35116956 -24.8002454 29.30098168 -28.4375 29.25 C-30.91079302 29.22992746 -33.38410155 29.21167802 -35.85742188 29.1953125 C-41.90528713 29.15132407 -47.95257193 29.08447025 -54 29 C-54 28.67 -54 28.34 -54 28 C-53.38469925 27.99413376 -52.7693985 27.98826752 -52.13545227 27.98222351 C-45.72745056 27.9182562 -39.31994952 27.83382763 -32.91235352 27.73754883 C-30.52147017 27.70430833 -28.13050852 27.67627371 -25.73950195 27.65356445 C-22.30125581 27.62000317 -18.86372671 27.56768476 -15.42578125 27.51171875 C-13.82395744 27.50213387 -13.82395744 27.50213387 -12.18977356 27.49235535 C-5.07559772 27.43347034 -5.07559772 27.43347034 1 24 C5.03158725 18.75981876 4.79588521 13.35032623 4 7 C2.94039776 4.25696044 1.74582039 2.40050303 0 0 Z " fill="#8473DC" transform="translate(150,87)"/>
<path d="M0 0 C1.0625 1.875 1.0625 1.875 2 4 C1.67 4.66 1.34 5.32 1 6 C0.90785369 8.30787874 0.88250603 10.6185085 0.88647461 12.92822266 C0.88632858 13.64052536 0.88618256 14.35282806 0.8860321 15.0867157 C0.88672989 17.44586206 0.89451603 19.80492989 0.90234375 22.1640625 C0.9042084 23.79788164 0.90563208 25.43170134 0.90663147 27.06552124 C0.91045291 31.3694818 0.92028002 35.67340871 0.93133545 39.97735596 C0.94155758 44.36771184 0.94613081 48.75807315 0.95117188 53.1484375 C0.96190261 61.76564046 0.97897457 70.38281604 1 79 C0.01 79.495 0.01 79.495 -1 80 C-1.02315123 70.01226384 -1.04092932 60.02453405 -1.05181217 50.03677654 C-1.05703489 45.39926393 -1.06412151 40.76176964 -1.07543945 36.12426758 C-1.08628996 31.65039197 -1.09228145 27.17653401 -1.09487724 22.70264626 C-1.09672758 20.99418675 -1.10034071 19.28572823 -1.10573006 17.57727623 C-1.11296916 15.18780795 -1.11398972 12.798413 -1.11352539 10.40893555 C-1.11712067 9.69971451 -1.12071594 8.99049347 -1.12442017 8.25978088 C-1.11801416 5.22136302 -0.96941367 2.90824101 0 0 Z " fill="#F8EDFE" transform="translate(46,58)"/>
<path d="M0 0 C0.70125 0.7425 1.4025 1.485 2.125 2.25 C5.99303261 5.94985728 10.14157879 8.75765175 15 11 C13 12 13 12 10.6875 11.375 C7.16807019 10.88391677 5.87534718 12.05719785 3 14 C2.34 14 1.68 14 1 14 C1 13.01 1 12.02 1 11 C1.99 10.34 2.98 9.68 4 9 C2.6910428 5.87802522 2.6910428 5.87802522 0 4 C0 2.68 0 1.36 0 0 Z " fill="#6B53E8" transform="translate(47,144)"/>
<path d="M0 0 C0.66 0 1.32 0 2 0 C2.02895225 3.29164829 2.0467823 6.58326399 2.0625 9.875 C2.07087891 10.81214844 2.07925781 11.74929687 2.08789062 12.71484375 C2.09111328 13.61074219 2.09433594 14.50664063 2.09765625 15.4296875 C2.10289307 16.25710449 2.10812988 17.08452148 2.11352539 17.93701172 C2 20 2 20 1 22 C0.34 22 -0.32 22 -1 22 C-0.67 14.74 -0.34 7.48 0 0 Z " fill="#6A53DD" transform="translate(155,46)"/>
<path d="M0 0 C0.33 0.99 0.66 1.98 1 3 C1.99 3 2.98 3 4 3 C4 5.31 4 7.62 4 10 C4.99 10 5.98 10 7 10 C7.33 10.99 7.66 11.98 8 13 C4.44218458 12.03842826 3.21983346 11.34112089 1.1875 8.1875 C0.05759991 5.15461027 -0.28140158 3.18921789 0 0 Z " fill="#EDE5FE" transform="translate(86,101)"/>
<path d="M0 0 C0.33 1.32 0.66 2.64 1 4 C-2.0684847 6.97550031 -3.46236331 7.96474513 -7.8125 8.25 C-8.864375 8.1675 -9.91625 8.085 -11 8 C-8.98555397 6.65703598 -6.96458448 5.32381027 -4.9375 4 C-2.02914697 2.15350738 -2.02914697 2.15350738 0 0 Z " fill="#6E57E4" transform="translate(153,69)"/>
<path d="M0 0 C1.39130435 5.2173913 1.39130435 5.2173913 0 8 C-2.94994816 10.33053647 -5.61638547 12.14190918 -9.4375 11.75 C-9.953125 11.5025 -10.46875 11.255 -11 11 C-10.113125 10.67 -9.22625 10.34 -8.3125 10 C-4.03655185 7.41829546 -2.31945607 4.32075667 0 0 Z " fill="#715CE1" transform="translate(155,104)"/>
<path d="M0 0 C-1.50139512 4.20390632 -4.17275043 5.89110738 -8 8 C-8.99 7.67 -9.98 7.34 -11 7 C-9.73742767 5.82439821 -8.46462916 4.65977135 -7.1875 3.5 C-6.12595703 2.52546875 -6.12595703 2.52546875 -5.04296875 1.53125 C-3 0 -3 0 0 0 Z " fill="#EFE7FE" transform="translate(153,68)"/>
<path d="M0 0 C0.66 0 1.32 0 2 0 C1.125 4.875 1.125 4.875 0 6 C-1.68608966 6.07205511 -3.37500659 6.08386068 -5.0625 6.0625 C-5.98160156 6.05347656 -6.90070313 6.04445312 -7.84765625 6.03515625 C-8.55792969 6.02355469 -9.26820313 6.01195312 -10 6 C-6.78360346 4.25434889 -4.67986596 3.795563 -1 4 C-0.67 2.68 -0.34 1.36 0 0 Z " fill="#F7EDFF" transform="translate(153,149)"/>
<path d="M0 0 C-0.57621094 0.28617187 -1.15242188 0.57234375 -1.74609375 0.8671875 C-3.18218223 1.58896507 -4.61261796 2.32218296 -6.03515625 3.0703125 C-6.70417969 3.41835937 -7.37320313 3.76640625 -8.0625 4.125 C-8.73410156 4.47820312 -9.40570313 4.83140625 -10.09765625 5.1953125 C-12 6 -12 6 -15 6 C-10.09817422 0.74804381 -7.24200793 -0.27853877 0 0 Z " fill="#EBE4FE" transform="translate(96,76)"/>
<path d="M0 0 C0 0.99 0 1.98 0 3 C-0.639375 3.2475 -1.27875 3.495 -1.9375 3.75 C-4.18741541 4.81562433 -4.18741541 4.81562433 -4.75 7.125 C-4.8325 7.74375 -4.915 8.3625 -5 9 C-6.32 8.67 -7.64 8.34 -9 8 C-6.35039045 4.36905358 -3.98175544 2.10148204 0 0 Z " fill="#745EE3" transform="translate(89,78)"/>
<path d="M0 0 C0.66 0 1.32 0 2 0 C0.55527654 3.80881639 -1.32603071 5.29742886 -5 7 C-5.99 6.67 -6.98 6.34 -8 6 C-7.05125 5.38125 -6.1025 4.7625 -5.125 4.125 C-2.05554891 2.18029031 -2.05554891 2.18029031 0 0 Z " fill="#EEE6FE" transform="translate(151,108)"/>
<path d="M0 0 C4.67692308 1.47692308 4.67692308 1.47692308 6.3125 4.125 C6.539375 4.74375 6.76625 5.3625 7 6 C4.83125748 5.49396008 3.00032373 5.00016187 1 4 C0.375 1.9375 0.375 1.9375 0 0 Z " fill="#E3DAFE" transform="translate(146,86)"/>
</svg>
