<?xml version="1.0" encoding="UTF-8"?>
<svg version="1.1" xmlns="http://www.w3.org/2000/svg" width="512" height="512">
<path d="M0 0 C168.96 0 337.92 0 512 0 C512 168.96 512 337.92 512 512 C343.04 512 174.08 512 0 512 C0 343.04 0 174.08 0 0 Z " fill="#6F3BF9" transform="translate(0,0)"/>
<path d="M0 0 C10.2675228 9.30494254 16.64741361 21.89376987 23 34 C23.32355469 34.60763184 23.64710938 35.21526367 23.98046875 35.84130859 C38.75891649 63.95424003 44.45621408 95.05736621 44.375 126.5 C44.37318726 127.80943573 44.37318726 127.80943573 44.37133789 129.14532471 C44.20296473 174.18206506 29.00551251 216.09028379 2 252 C-16.13426526 244.45779422 -30.17400799 213.44317264 -37.28540039 196.48071289 C-46.35692378 174.01861184 -51.22839564 151.52157748 -51.25 127.25 C-51.25067474 126.56603149 -51.25134949 125.88206299 -51.25204468 125.17736816 C-51.17726074 77.21220857 -32.11540984 35.00048212 0 0 Z " fill="#EAE3FE" transform="translate(127,130)"/>
<path d="M0 0 C3.14460554 2.76316471 6.21366587 5.5986221 9.23730469 8.49414062 C8.12504773 11.8309115 7.63292855 12.19298435 4.83496094 14.06054688 C3.76109131 14.78129395 3.76109131 14.78129395 2.66552734 15.51660156 C1.88483887 16.02481445 1.10415039 16.53302734 0.29980469 17.05664062 C-0.50924316 17.58676758 -1.31829102 18.11689453 -2.15185547 18.66308594 C-16.0620455 27.66712527 -30.11965416 34.89716602 -45.64794922 40.69824219 C-47.3871428 41.352799 -49.11396212 42.0401417 -50.83691406 42.73632812 C-59.20808845 46.04377528 -67.94954031 47.8065152 -76.76269531 49.49414062 C-77.9105249 49.72496338 -77.9105249 49.72496338 -79.08154297 49.96044922 C-92.34623578 52.5365233 -105.60892118 52.80777391 -119.07519531 52.86914062 C-119.92196838 52.87699585 -120.76874146 52.88485107 -121.64117432 52.89294434 C-133.35544291 52.97747883 -144.30553318 51.91960391 -155.76269531 49.49414062 C-157.21808716 49.20410156 -157.21808716 49.20410156 -158.70288086 48.90820312 C-189.17864122 42.67539024 -218.96298244 29.78652739 -242.76269531 9.49414062 C-237.22198859 2.16085231 -230.08705051 -3.08530078 -222.76269531 -8.50585938 C-222.21033203 -8.9223877 -221.65796875 -9.33891602 -221.08886719 -9.76806641 C-155.8293987 -58.4378084 -61.01906086 -52.12819493 0 0 Z " fill="#F8F6FE" transform="translate(372.7626953125,118.505859375)"/>
<path d="M0 0 C23.79748979 -0.63097533 48.38161528 1.70591418 70.78515625 10.21875 C72.08500568 10.67713018 73.38582602 11.13276448 74.6875 11.5859375 C95.21820731 18.85317985 115.3195488 28.78031532 131.78515625 43.21875 C122.40222716 55.20804828 109.69131582 63.45763312 96.78515625 71.21875 C95.78621338 71.82033936 95.78621338 71.82033936 94.76708984 72.43408203 C59.16460911 93.46028069 11.30503977 102.21995006 -29.21484375 92.21875 C-30.60975118 91.921404 -32.00563029 91.6285874 -33.40234375 91.33984375 C-49.01028275 88.02601118 -63.38046562 82.62439447 -77.45898438 75.14746094 C-79.01913807 74.32226285 -80.59270178 73.52253073 -82.16796875 72.7265625 C-96.05868759 65.53750626 -110.43040634 55.42749544 -120.21484375 43.21875 C-110.93335794 36.08427456 -101.55874494 29.73542805 -91.20019531 24.26855469 C-89.27589526 23.25103252 -87.36685908 22.20842152 -85.45703125 21.1640625 C-62.59856545 8.92691127 -34.4866997 0.35018465 -8.45263672 0.2421875 C-5.63280533 0.21265403 -2.81820424 0.10003979 0 0 Z " fill="#E4D5FE" transform="translate(250.21484375,340.78125)"/>
<path d="M0 0 C4.84110686 3.90673315 8.96743411 7.98839895 12.8125 12.875 C13.32458008 13.52210938 13.83666016 14.16921875 14.36425781 14.8359375 C19.82669595 21.87115194 24.53664481 29.30085615 29 37 C29.54116455 37.9276416 29.54116455 37.9276416 30.09326172 38.87402344 C47.04464236 68.27517327 52.67742087 100.52934919 52.05322266 134.11425781 C52.02197036 135.80876318 51.99765153 137.50346708 51.98974609 139.19824219 C51.88725498 159.70725413 45.5339442 180.5274309 37 199 C36.51660156 200.05985107 36.51660156 200.05985107 36.0234375 201.14111328 C29.63381365 214.98205152 21.81801387 227.81468222 12.25 239.6875 C11.45396362 240.6765332 11.45396362 240.6765332 10.6418457 241.68554688 C7.39227361 245.61040086 4.01288146 248.85817814 0 252 C-10.9008356 239.27615776 -18.9335352 224.10940104 -26 209 C-26.79857422 207.33130859 -26.79857422 207.33130859 -27.61328125 205.62890625 C-37.28532195 184.41039836 -42.57715144 160.27428958 -43 137 C-43.02578125 135.96810547 -43.0515625 134.93621094 -43.078125 133.87304688 C-44.20690008 84.46091761 -30.02418786 39.4690542 0 0 Z " fill="#EFE6FE" transform="translate(384,130)"/>
</svg>
